<?xml version="1.0" standalone="no"?>
<!DOCTYPE svg PUBLIC "-//W3C//DTD SVG 20010904//EN"
 "http://www.w3.org/TR/2001/REC-SVG-20010904/DTD/svg10.dtd">
<svg version="1.0" xmlns="http://www.w3.org/2000/svg"
 width="260.000000pt" height="260.000000pt" viewBox="0 0 260.000000 260.000000"
 preserveAspectRatio="xMidYMid meet">
<metadata>
Created by potrace 1.11, written by Peter Selinger 2001-2013
</metadata>
<g transform="translate(0.000000,260.000000) scale(0.100000,-0.100000)"
fill="#000000" stroke="none">
<path d="M1213 2333 c-59 -65 -124 -140 -222 -258 -9 -11 -30 -38 -46 -60 -16
-22 -32 -42 -35 -45 -17 -17 -155 -223 -197 -295 -155 -264 -231 -486 -237
-685 -1 -41 1 -93 5 -115 4 -22 10 -56 13 -77 27 -173 168 -383 331 -491 144
-97 268 -137 430 -143 325 -10 611 157 755 441 62 122 81 201 85 340 4 139
-13 238 -71 394 -34 90 -143 310 -183 369 -10 15 -47 70 -81 122 -112 167
-332 441 -437 543 l-40 38 -70 -78z"/>
</g>
</svg>
