<svg version="1.1"  xmlns="http://www.w3.org/2000/svg" xmlns:xlink="http://www.w3.org/1999/xlink" x="0px" y="0px"
	 viewBox="0 0 115.7 110.7" style="enable-background:new 0 0 115.7 110.7;" xml:space="preserve">
<g>
	<g>
		<rect x="22.2" y="59.7" width="1.8" height="27.2"/>
	</g>
	<g>
		<rect x="27" y="18" width="62.5" height="1.8"/>
	</g>
	<g>
		<rect x="93" y="59.7" width="1.8" height="27.2"/>
	</g>
	<g>
		<rect x="27" y="90.8" width="62.5" height="1.8"/>
	</g>
	<g>
		<rect x="93" y="24.1" width="1.8" height="26.9"/>
	</g>
	<g>
		<rect x="22.2" y="24.1" width="1.8" height="26.9"/>
	</g>
	<g>
		<path d="M27.9,25H17.3V14.4h10.6V25z M19.2,23.2h6.9v-7h-6.9V23.2z"/>
	</g>
	<g>
		<path d="M99.2,25H88.6V14.4h10.6V25z M90.4,23.2h6.9v-7h-6.9V23.2z"/>
	</g>
	<g>
		<path d="M27.9,60.6H17.3V50h10.6V60.6z M19.2,58.8h6.9v-7h-6.9V58.8z"/>
	</g>
	<g>
		<path d="M99.2,60.6H88.6V50h10.6V60.6z M90.4,58.8h6.9v-7h-6.9V58.8z"/>
	</g>
	<g>
		<path d="M27.9,96.5H17.3V86h10.6V96.5z M19.2,94.7h6.9v-7h-6.9V94.7z"/>
	</g>
	<g>
		<path d="M99.2,96.5H88.6V86h10.6V96.5z M90.4,94.7h6.9v-7h-6.9V94.7z"/>
	</g>
	<g>
		<path d="M54.2,69.9c-4.4,0-8.7-1.4-12.4-4.2c-8.9-6.8-10.6-19.6-3.8-28.6c3.3-4.3,8.1-7.1,13.5-7.8c5.4-0.7,10.7,0.7,15.1,4
			c4.3,3.3,7.1,8.1,7.8,13.5s-0.7,10.7-4,15.1l-1.4-1.1c6.2-8.1,4.7-19.8-3.5-26c-3.9-3-8.8-4.3-13.7-3.6c-4.9,0.7-9.3,3.2-12.3,7.1
			c-6.2,8.1-4.7,19.8,3.5,26c6.4,4.9,15.2,5.1,21.8,0.6l1,1.5C62.2,68.7,58.2,69.9,54.2,69.9z"/>
	</g>
	<g>
		<path d="M64.1,83.5l0.3-28.6L84.8,75l-12.6-1.3L64.1,83.5z M66.2,59.2L66,78.4l5.4-6.6l8.5,0.9L66.2,59.2z"/>
	</g>
</g>
</svg>
