<svg version="1.1"  xmlns="http://www.w3.org/2000/svg" xmlns:xlink="http://www.w3.org/1999/xlink" x="0px" y="0px"
	 viewBox="0 0 115.7 110.7" style="enable-background:new 0 0 115.7 110.7;" xml:space="preserve">
<g>
	<g>
		<path d="M87.7,94.1L75,83.7H16.2V31.4H98v52.3H87.7V94.1z M18,81.9h57.5l10.4,8.4v-8.4h10.3V33.2H18V81.9z"/>
	</g>
	<g>
		<rect x="55.8" y="54.2" transform="matrix(0.6548 -0.7558 0.7558 0.6548 -19.51 67.5498)" width="16.7" height="1.8"/>
	</g>
	<g>
		<rect x="47.2" y="52.3" transform="matrix(0.4437 -0.8962 0.8962 0.4437 -25.831 75.7075)" width="1.8" height="12.6"/>
	</g>
	<g>
		<rect x="78.9" y="45.8" transform="matrix(0.495 -0.8689 0.8689 0.495 -4.6484 95.5012)" width="1.8" height="11.9"/>
	</g>
	<g>
		<rect x="27.1" y="60.4" transform="matrix(0.6011 -0.7992 0.7992 0.6011 -35.6098 51.2345)" width="12.9" height="1.8"/>
	</g>
	<g>
		<path d="M30.5,72.4h-6.8v-6.8h6.8V72.4z M25.5,70.6h3.2v-3.2h-3.2V70.6z"/>
	</g>
	<g>
		<path d="M43.3,57h-6.8v-6.8h6.8V57z M38.3,55.2h3.2V52h-3.2V55.2z"/>
	</g>
	<g>
		<path d="M59.6,67.4h-6.8v-6.8h6.8V67.4z M54.6,65.6h3.2v-3.2h-3.2V65.6z"/>
	</g>
	<g>
		<path d="M75.6,49.7h-6.8v-6.8h6.8V49.7z M70.6,47.9h3.2v-3.2h-3.2V47.9z"/>
	</g>
	<g>
		<path d="M90.5,60.6h-6.8v-6.8h6.8V60.6z M85.5,58.8h3.2v-3.2h-3.2V58.8z"/>
	</g>
	<g>
		<path d="M98,33.2H16.2v-9.5H98V33.2z M18,31.4h78.2v-5.9H18V31.4z"/>
	</g>
	<g>
		<rect x="82.6" y="27.6" width="11.1" height="1.8"/>
	</g>
</g>
</svg>
