<svg version="1.1"  xmlns="http://www.w3.org/2000/svg" xmlns:xlink="http://www.w3.org/1999/xlink" x="0px" y="0px"
	 width="512px" height="512px" viewBox="0 0 512 512" style="enable-background:new 0 0 512 512;" xml:space="preserve">
<g>
	<path d="M155.3,97.9c18.3,0,35.6,7.5,48.7,21.1l27.5,28.6l24.5,25.4l24.5-25.4l27.5-28.5l0,0l0,0c13.1-13.6,30.4-21.1,48.7-21.1
		c18.3,0,35.6,7.5,48.7,21.1c15.9,16.5,24.6,38.6,24.6,62.1c0,23.6-8.7,45.6-24.6,62.1L256,398.9L106.6,243.3
		C90.7,226.8,82,204.8,82,181.2s8.7-45.6,24.7-62.2C119.7,105.4,137,97.9,155.3,97.9 M155.3,63.9c-26.5,0-53,10.5-73.2,31.6
		c-45.5,47.3-45.5,124.1,0,171.4L256,448l173.9-181c45.5-47.3,45.5-124.1,0-171.4c-20.2-21-46.7-31.6-73.2-31.6s-53,10.5-73.2,31.6
		L256,124.1l-27.5-28.6C208.2,74.4,181.8,63.9,155.3,63.9L155.3,63.9z"/>
</g>
</svg>
