<svg version="1.1"  xmlns="http://www.w3.org/2000/svg" xmlns:xlink="http://www.w3.org/1999/xlink" x="0px" y="0px"
	 viewBox="0 0 115.7 110.7" style="enable-background:new 0 0 115.7 110.7;" xml:space="preserve">
<g>
	<g>
		<path d="M74.4,94.9H36.2l0.2-1.1c0-0.1,2-13-9.8-33.9c-5.9-10.4-1.6-23.3-1.4-23.9l0.2-0.6h59.8l9,28.8H83.7v10.9h-9.3V94.9z
			 M38.3,93.1h34.3V73.4h9.3V62.5h9.8l-7.8-25.2H26.7c-0.8,2.6-3.4,13.3,1.4,21.8C38.5,77.4,38.6,89.6,38.3,93.1z"/>
	</g>
	<g>
		<rect x="63" y="16" width="1.8" height="14.9"/>
	</g>
	<g>
		<polygon points="60.3,20.6 59.1,19.4 63.9,14.9 68.8,19.4 67.6,20.6 63.9,17.2 		"/>
	</g>
	<g>
		<rect x="46.6" y="15.3" width="1.8" height="14.9"/>
	</g>
	<g>
		<polygon points="47.5,31.3 42.7,26.8 43.9,25.6 47.5,29 51.2,25.6 52.4,26.8 		"/>
	</g>
</g>
</svg>
