
<svg version="1.1" id="Lag_1" xmlns="http://www.w3.org/2000/svg" xmlns:xlink="http://www.w3.org/1999/xlink" x="0px" y="0px"
	 width="453.7px" height="159.8px" viewBox="0 0 453.7 159.8" enable-background="new 0 0 453.7 159.8" xml:space="preserve">
<g>
	<path d="M30.6,159.8H0V45.7h30.4v6.4c10.5-6.1,19.5-9.1,26.9-9.1c12.3,0,21.8,3.6,28.5,10.7c14-7.2,26.8-10.7,38.4-10.7
		c15.1,0,25.5,4.4,31.4,13.1c5.9,8.8,8.8,22.7,8.8,41.9v61.9h-30.6v-61c0-9.7-1.1-16.9-3.2-21.6c-2.1-4.6-6.4-7-12.8-7
		c-4.9,0-10.8,1.1-17.8,3.2l-3.4,1.1c0.6,11.4,0.9,20.1,0.9,26v59.1H66.9v-58.7c0-11.3-1-19.2-3-23.9c-2-4.6-6.3-7-13-7
		c-5.9,0-11.8,1.1-17.6,3.2l-2.7,0.9V159.8z"/>
	<path d="M194.9,159.8V45.7h30.6v114.2H194.9z"/>
	<path d="M256.1,159.8V0h30.6v159.8H256.1z"/>
	<path d="M347.9,159.8h-30.6V0h30.6v90.9l11.6-2.1l19-43.2H409l-24.1,54.1l24.3,60.1h-30.7l-18-44.5l-12.6,2.1V159.8z"/>
	<path d="M453.7,24.7c0,7.7-6.3,13.9-14,13.9c-7.7,0-14-6.2-14-13.9c0-10.9,14-24.7,14-24.7S453.7,13.9,453.7,24.7z"/>
</g>
</svg>
